<svg width="89" height="22" viewBox="0 0 89 22" fill="none" xmlns="http://www.w3.org/2000/svg">
<path opacity="1" d="M13.0823 19.7735C13.0823 19.6706 13.0825 19.5805 13.0823 19.4904C13.0806 18.9626 13.0793 18.4347 13.0823 17.9068C13.0842 17.557 13.0971 17.2072 13.0981 16.8575C13.0988 16.6117 13.089 16.3672 13.0809 16.1222C13.0764 15.9876 13.1225 15.8783 13.2103 15.7755C14.164 14.6574 15.116 13.538 16.0665 12.4171C16.1779 12.2861 16.2849 12.1508 16.4004 12.024C16.492 11.9239 16.4904 11.8328 16.4235 11.7182C16.0966 11.156 15.7796 10.588 15.4524 10.0261C15.2886 9.7434 15.1111 9.46735 14.9361 9.19104C14.7949 8.96864 14.5811 8.85451 14.326 8.82352C14.1723 8.80639 14.0177 8.79846 13.863 8.79977C12.516 8.79977 11.1693 8.80091 9.82285 8.80318C9.51363 8.80318 9.20441 8.80646 8.89451 8.80318C8.4713 8.79786 8.15211 8.96701 7.93737 9.33984C7.51088 10.0807 7.07579 10.8167 6.64616 11.5558C6.61271 11.6134 6.58284 11.6731 6.55278 11.7348C6.50941 11.8238 6.51697 11.9325 6.58063 12.0083C7.15948 12.6983 7.73851 13.3883 8.31771 14.0782C8.61888 14.4372 8.91663 14.7991 9.22025 15.1567C9.41138 15.3818 9.60947 15.6019 9.80824 15.8207C9.84129 15.8551 9.86699 15.8958 9.88378 15.9404C9.90056 15.985 9.90807 16.0325 9.90585 16.0801C9.89752 16.4711 9.89329 16.8622 9.89002 17.2532C9.88933 17.3351 9.90367 17.4164 9.90367 17.4979C9.90476 18.1805 9.90476 18.8631 9.90367 19.5457C9.90367 19.6174 9.89439 19.6892 9.88811 19.7805H9.67636C8.11566 19.7805 6.55483 19.7846 4.99372 19.7783C4.3802 19.7759 3.77746 19.6954 3.21718 19.4193C2.43001 19.0311 1.79983 18.4728 1.3571 17.7085C1.13361 17.323 1.00529 16.9058 0.889107 16.4778C0.77989 16.0778 0.845286 15.683 0.843374 15.2858C0.841463 14.8965 0.971974 14.535 1.10071 14.1755C1.15924 14.0146 1.23207 13.8593 1.31833 13.7114C2.52926 11.6169 3.75316 9.52988 4.95345 7.42938C5.85584 5.84998 6.78896 4.28846 7.68494 2.70578C7.81477 2.47629 7.93423 2.2397 8.08085 2.021C8.6612 1.15273 9.4597 0.582212 10.4734 0.328148C10.7313 0.263574 11.0035 0.248148 11.2705 0.229308C12.4528 0.145894 13.47 0.53129 14.3333 1.33307C14.6185 1.59792 14.8479 1.90878 15.0415 2.24653C15.2247 2.56612 15.4128 2.88271 15.5959 3.20217C15.6976 3.37965 15.7897 3.56258 15.8921 3.73951C16.1314 4.15276 16.3768 4.56246 16.6157 4.97598C17.0475 5.72438 17.4737 6.47592 17.9069 7.22351C18.3354 7.96317 18.7712 8.69793 19.2004 9.43787C19.28 9.57438 19.3431 9.72155 19.4135 9.86394C19.4197 9.87609 19.4221 9.89016 19.4289 9.90176C19.5596 10.1246 19.6906 10.3472 19.8219 10.5696C19.8543 10.6242 19.8954 10.6742 19.9255 10.73C20.3163 11.4543 20.7668 12.1438 21.1659 12.8633C21.2916 13.0898 21.435 13.3064 21.5618 13.5322C21.8054 13.9665 21.9987 14.4196 22.0847 14.9155C22.1372 15.221 22.1899 15.5248 22.1655 15.8359C22.0862 16.8416 21.749 17.7425 21.0508 18.4844C20.4032 19.1726 19.6072 19.595 18.6698 19.7379C18.5124 19.762 18.3535 19.7744 18.1943 19.775C16.5335 19.7786 14.8728 19.78 13.212 19.7794C13.1812 19.7789 13.1326 19.7759 13.0823 19.7735Z" fill="url(#paint0_linear_0_1)"/>
<path d="M38.8337 4.13241H42.0245V16.5H38.8337V15.0406C37.8773 16.2444 36.5333 16.8463 34.8019 16.8463C33.1528 16.8463 31.7347 16.2197 30.5474 14.9664C29.3766 13.6967 28.7912 12.1466 28.7912 10.3162C28.7912 8.4858 29.3766 6.94398 30.5474 5.69073C31.7347 4.42099 33.1528 3.78612 34.8019 3.78612C36.5333 3.78612 37.8773 4.38801 38.8337 5.59179V4.13241ZM32.9467 12.8392C33.5898 13.4823 34.4061 13.8039 35.3955 13.8039C36.3849 13.8039 37.2012 13.4823 37.8443 12.8392C38.5039 12.1796 38.8337 11.3386 38.8337 10.3162C38.8337 9.29382 38.5039 8.46107 37.8443 7.81795C37.2012 7.15835 36.3849 6.82855 35.3955 6.82855C34.4061 6.82855 33.5898 7.15835 32.9467 7.81795C32.3036 8.46107 31.982 9.29382 31.982 10.3162C31.982 11.3386 32.3036 12.1796 32.9467 12.8392ZM51.9922 7.19957H49.1971V12.3445C49.1971 12.7732 49.3043 13.0865 49.5187 13.2844C49.7331 13.4823 50.0464 13.5977 50.4586 13.6307C50.8709 13.6472 51.3821 13.639 51.9922 13.606V16.5C49.799 16.7474 48.249 16.5412 47.342 15.8816C46.4515 15.222 46.0063 14.043 46.0063 12.3445V7.19957H43.8543V4.13241H46.0063V1.63416L49.1971 0.669486V4.13241H51.9922V7.19957ZM63.2548 4.13241H66.4457V16.5H63.2548V15.0406C62.2984 16.2444 60.9545 16.8463 59.223 16.8463C57.574 16.8463 56.1558 16.2197 54.9686 14.9664C53.7978 13.6967 53.2124 12.1466 53.2124 10.3162C53.2124 8.4858 53.7978 6.94398 54.9686 5.69073C56.1558 4.42099 57.574 3.78612 59.223 3.78612C60.9545 3.78612 62.2984 4.38801 63.2548 5.59179V4.13241ZM57.3679 12.8392C58.011 13.4823 58.8272 13.8039 59.8167 13.8039C60.8061 13.8039 61.6223 13.4823 62.2654 12.8392C62.925 12.1796 63.2548 11.3386 63.2548 10.3162C63.2548 9.29382 62.925 8.46107 62.2654 7.81795C61.6223 7.15835 60.8061 6.82855 59.8167 6.82855C58.8272 6.82855 58.011 7.15835 57.3679 7.81795C56.7248 8.46107 56.4032 9.29382 56.4032 10.3162C56.4032 11.3386 56.7248 12.1796 57.3679 12.8392ZM76.5371 3.78612C78.2026 3.78612 79.6207 4.42099 80.7915 5.69073C81.9788 6.94398 82.5724 8.4858 82.5724 10.3162C82.5724 12.1466 81.9788 13.6967 80.7915 14.9664C79.6207 16.2197 78.2026 16.8463 76.5371 16.8463C74.8056 16.8463 73.4699 16.2444 72.53 15.0406V21.447H69.3391V4.13241H72.53V5.59179C73.4699 4.38801 74.8056 3.78612 76.5371 3.78612ZM73.4946 12.8392C74.1377 13.4823 74.954 13.8039 75.9434 13.8039C76.9328 13.8039 77.7491 13.4823 78.3922 12.8392C79.0518 12.1796 79.3816 11.3386 79.3816 10.3162C79.3816 9.29382 79.0518 8.46107 78.3922 7.81795C77.7491 7.15835 76.9328 6.82855 75.9434 6.82855C74.954 6.82855 74.1377 7.15835 73.4946 7.81795C72.8515 8.46107 72.53 9.29382 72.53 10.3162C72.53 11.3386 72.8515 12.1796 73.4946 12.8392Z" fill="white"/>
<rect x="85.4964" y="13.118" width="3.50351" height="3.50386" fill="url(#paint1_linear_0_1)"/>
<defs>
<linearGradient id="paint0_linear_0_1" x1="5.30344" y1="-1.24706" x2="24.2327" y2="23.3554" gradientUnits="userSpaceOnUse">
<stop stop-color="#D181E4"/>
<stop offset="0.336458" stop-color="#DD56FF"/>
<stop offset="0.961458" stop-color="#6322A5"/>
</linearGradient>
<linearGradient id="paint1_linear_0_1" x1="85.1222" y1="13.118" x2="90.4894" y2="17.0774" gradientUnits="userSpaceOnUse">
<stop stop-color="#D181E4"/>
<stop offset="0.336458" stop-color="#DD56FF"/>
<stop offset="0.961458" stop-color="#6322A5"/>
</linearGradient>
</defs>
</svg>
