<svg width="18" height="18" viewBox="0 0 18 18" fill="none" xmlns="http://www.w3.org/2000/svg">
<path fill-rule="evenodd" clip-rule="evenodd" d="M7.33335 2.33329C4.57193 2.33329 2.33335 4.57187 2.33335 7.33329C2.33335 10.0947 4.57193 12.3333 7.33335 12.3333C10.0948 12.3333 12.3334 10.0947 12.3334 7.33329C12.3334 4.57187 10.0948 2.33329 7.33335 2.33329ZM0.666687 7.33329C0.666687 3.65139 3.65146 0.666626 7.33335 0.666626C11.0153 0.666626 14 3.65139 14 7.33329C14 8.87389 13.4775 10.2924 12.5999 11.4213L17.0893 15.9107C17.4147 16.2361 17.4147 16.7638 17.0893 17.0892C16.7638 17.4147 16.2362 17.4147 15.9108 17.0892L11.4214 12.5998C10.2925 13.4774 8.87395 14 7.33335 14C3.65146 14 0.666687 11.0152 0.666687 7.33329Z" fill="#AA99C0"/>
</svg>

